<svg width="1905" height="1007" viewBox="0 0 1905 1007" fill="none" xmlns="http://www.w3.org/2000/svg">
<path d="M44.89 5.60364C44.89 5.60364 127.39 -26.8874 224.89 64.6036C290.29 125.97 290.89 168.704 314.151 272.752C342.651 400.24 429.469 589.766 645.89 498.604C761.774 449.79 751.99 582.256 682.89 713.604C639.096 796.844 549.031 887.971 525.89 905.604C367.107 1026.59 132.223 1013.88 43.89 990.604C-44.104 967.413 23.897 10.1036 44.89 5.60364Z" fill="#0898E7"/>
<path d="M1872.54 197.013C1872.54 197.013 1564.95 113.577 1339.54 406.013C1235.35 541.171 1213.04 630.023 1217.54 774.013C1224.28 989.972 1258.46 1042.72 1434.54 984.013C1529.01 952.513 1629.54 915.013 1629.54 915.013C1685.54 893.013 1846.55 853.093 1873.54 858.013C1900.53 862.933 1928.02 198.513 1872.54 197.013Z" fill="#FAAE1B"/>
</svg>
